<?xml version="1.0" encoding="UTF-8"?> <!-- Generator: Adobe Illustrator 22.0.1, SVG Export Plug-In . SVG Version: 6.00 Build 0) --> <svg xmlns="http://www.w3.org/2000/svg" xmlns:xlink="http://www.w3.org/1999/xlink" id="Layer_1" x="0px" y="0px" viewBox="0 0 13.2 13" style="enable-background:new 0 0 13.2 13;" xml:space="preserve"> <style type="text/css"> .st0{fill:#FFFFFF;} </style> <g> <path class="st0" d="M12.5,12.1l-0.3,0.3c-0.3,0.3-0.9,0.3-1.2,0L1,2.4C0.7,2.1,0.7,1.5,1,1.2l0.3-0.3c0.3-0.3,0.9-0.3,1.2,0l10,10 C12.9,11.2,12.9,11.7,12.5,12.1z"></path> <path class="st0" d="M1,12.2L1,12.2c-0.4-0.4-0.4-1.1,0-1.5l9.9-9.9c0.4-0.4,1.1-0.4,1.5,0l0,0c0.4,0.4,0.4,1.1,0,1.5l-9.9,9.9 C2.1,12.6,1.4,12.6,1,12.2z"></path> </g> </svg> 