<?xml version="1.0" encoding="UTF-8"?> <!-- Generator: Adobe Illustrator 22.0.1, SVG Export Plug-In . SVG Version: 6.00 Build 0) --> <svg xmlns="http://www.w3.org/2000/svg" xmlns:xlink="http://www.w3.org/1999/xlink" id="Capa_1" x="0px" y="0px" viewBox="0 0 957.6 957.6" style="enable-background:new 0 0 957.6 957.6;" xml:space="preserve"> <style type="text/css"> .st0{fill:#E60100;} .st1{fill:#FFFFFF;} </style> <g> <g> <polygon class="st0" points="83.4,700.4 83.4,261.8 463.5,41.7 845,261.7 845,700.5 463.5,920.5 "></polygon> <path class="st1" d="M463.5,59L830,270.4v421.4L463.5,903.2L98.4,691.8V270.4L463.5,59 M463.5,24.4l-15,8.7L83.4,244.4l-15,8.7 v17.3v421.4v17.3l15,8.7l365.1,211.4l15,8.7l15-8.7L845,717.8l15-8.7v-17.3V270.4v-17.3l-15-8.7L478.5,33L463.5,24.4L463.5,24.4z"></path> </g> <g> <polygon class="st1" points="107.5,275 274.8,372.3 274.8,179.2 "></polygon> <polygon class="st1" points="271.8,378.4 104.5,282.6 104.5,474.3 "></polygon> <polygon class="st1" points="271.8,583.8 104.5,487.9 104.5,679.6 "></polygon> <polygon class="st1" points="107.5,480.3 274.8,577.7 274.8,384.5 "></polygon> <polygon class="st1" points="107.5,687.2 274.8,783 274.8,589.9 "></polygon> <polygon class="st1" points="449.8,275 282.4,179.2 282.4,372.3 "></polygon> <polygon class="st1" points="463.5,480.3 630.8,384.5 630.8,577.7 "></polygon> <polygon class="st1" points="627.7,378.4 460.4,474.3 460.4,282.6 "></polygon> <polygon class="st1" points="627.7,583.8 460.4,679.6 460.4,487.9 "></polygon> </g> </g> </svg> 