<?xml version="1.0" encoding="UTF-8"?> <!-- Generator: Adobe Illustrator 22.0.1, SVG Export Plug-In . SVG Version: 6.00 Build 0) --> <svg xmlns="http://www.w3.org/2000/svg" xmlns:xlink="http://www.w3.org/1999/xlink" id="Layer_1" x="0px" y="0px" viewBox="0 0 205 205" style="enable-background:new 0 0 205 205;" xml:space="preserve"> <style type="text/css"> .st0{fill-rule:evenodd;clip-rule:evenodd;fill:url(#SVGID_1_);} .st1{fill-rule:evenodd;clip-rule:evenodd;fill:#FEFEFE;} </style> <g> <linearGradient id="SVGID_1_" gradientUnits="userSpaceOnUse" x1="102.0024" y1="15.6116" x2="102.0024" y2="185.19"> <stop offset="0" style="stop-color:#4E6ABD"></stop> <stop offset="1" style="stop-color:#3E51A0"></stop> </linearGradient> <path class="st0" d="M46,2.8H158c24.2,0,44,19.8,44,44v111.9c0,24.3-19.8,44.1-44,44.1H46c-24.3,0-44-19.8-44-44.1V46.8 C2,22.6,21.8,2.8,46,2.8L46,2.8z"></path> <path class="st1" d="M111.6,80.2v-9.7c0-4.6,3.1-5.7,5.3-5.7c2.1,0,13.5,0,13.5,0V44.1h-18.6c-20.7,0-25.3,15.3-25.3,25.2v10.9h-12 v14.5v9.6h12.1c0,27.3,0,60.1,0,60.1h24.1c0,0,0-33.2,0-60.1h17.8l0.8-9.5l1.4-14.6H111.6z"></path> </g> </svg> 