<?xml version="1.0" encoding="UTF-8"?> <!-- Generator: Adobe Illustrator 22.0.1, SVG Export Plug-In . SVG Version: 6.00 Build 0) --> <svg xmlns="http://www.w3.org/2000/svg" xmlns:xlink="http://www.w3.org/1999/xlink" id="Capa_1" x="0px" y="0px" viewBox="0 0 957.6 957.6" style="enable-background:new 0 0 957.6 957.6;" xml:space="preserve"> <style type="text/css"> .st0{fill:#FFFFFF;} </style> <g> <path class="st0" d="M758.1,173.7H735v566.6c0,37.6-30.6,68.3-68.3,68.3H433.1H247.3v21c0,24.1,19.5,43.6,43.6,43.6h233.6H758 c24.1,0,43.6-19.5,43.6-43.6V217.3C801.6,193.2,782.2,173.7,758.1,173.7z"></path> <path class="st0" d="M433.1,783.9h233.6c24.1,0,43.6-19.5,43.6-43.6V173.7V128c0-24.1-19.5-43.6-43.6-43.6H433.1h-77.7v14.4 c0.2,1.5,0.2,3,0.2,4.6v95v24.4c0,33.9-27.5,61.4-61.4,61.4h-24.4h-95c-1.2,0-2.6-0.1-3.8-0.2H156v456.3 c0,24.1,19.5,43.6,43.6,43.6h47.8H433.1L433.1,783.9z M441.9,635.8H289.6c-11.4,0-20.6-9.2-20.6-20.6s9.2-20.6,20.6-20.6H442 c11.4,0,20.6,9.2,20.6,20.6S453.3,635.8,441.9,635.8z M594.3,530.7H289.6c-11.4,0-20.6-9.2-20.6-20.6c0-11.4,9.2-20.6,20.6-20.6 h304.7c11.4,0,20.6,9.2,20.6,20.6C614.9,521.5,605.6,530.7,594.3,530.7z M289.6,377.9h304.7c11.4,0,20.6,9.2,20.6,20.6 s-9.2,20.6-20.6,20.6H289.6c-11.4,0-20.6-9.2-20.6-20.6S278.2,377.9,289.6,377.9z"></path> <path class="st0" d="M174.9,259.5h119.4c0.1,0,0.2,0,0.3,0c19.9-0.2,36.1-16.3,36.2-36.2c0-0.1,0-0.2,0-0.3V103.4 c0-11-9.1-18.4-18.5-18.4c-4.5,0-9.1,1.6-12.8,5.4L161.9,228.2C150.4,239.7,158.6,259.5,174.9,259.5z"></path> </g> </svg> 