<?xml version="1.0" encoding="UTF-8"?> <svg xmlns="http://www.w3.org/2000/svg" xmlns:xlink="http://www.w3.org/1999/xlink" viewBox="0 0 85.51 98.74"><defs><style>.cls-1{opacity:0.5;fill:url(#radial-gradient);}.cls-2{fill:url(#linear-gradient);}.cls-3{fill:url(#linear-gradient-2);}.cls-4{fill:url(#linear-gradient-3);}.cls-5{fill:url(#linear-gradient-4);}</style><radialGradient id="radial-gradient" cx="3644.84" cy="-2688.22" r="46.18" gradientTransform="translate(-2645.47 -3595.47) rotate(90)" gradientUnits="userSpaceOnUse"><stop offset="0" stop-color="#424153"></stop><stop offset="0.99" stop-color="#1d1c2a"></stop></radialGradient><linearGradient id="linear-gradient" x1="-2.13" y1="-425.62" x2="92.56" y2="-328.75" gradientTransform="matrix(1, -0.27, 0, 1, 0, 453.87)" gradientUnits="userSpaceOnUse"><stop offset="0" stop-color="#fff9a1"></stop><stop offset="0.5" stop-color="#f70"></stop></linearGradient><linearGradient id="linear-gradient-2" x1="11.96" y1="-407.49" x2="113.89" y2="-359.42" gradientTransform="matrix(1, -0.27, 0, 1, 0, 453.87)" gradientUnits="userSpaceOnUse"><stop offset="0" stop-color="#bf0a0a"></stop><stop offset="0.99" stop-color="#4d0000"></stop></linearGradient><linearGradient id="linear-gradient-3" x1="10.22" y1="-13243.64" x2="109.06" y2="-13291.42" gradientTransform="matrix(1, -0.27, 0, -1, 0, -13187.06)" xlink:href="#linear-gradient-2"></linearGradient><linearGradient id="linear-gradient-4" x1="7.51" y1="-372.66" x2="78" y2="-413.36" gradientTransform="matrix(1, -0.27, 0, 1, 0, 453.87)" gradientUnits="userSpaceOnUse"><stop offset="0" stop-color="#fff9a1"></stop><stop offset="0.5" stop-color="#f70"></stop><stop offset="1" stop-color="#9e0000"></stop></linearGradient></defs><title>ft_icon_logo</title><g id="Layer_2" data-name="Layer 2"><g id="Layer_1-2" data-name="Layer 1"><g id="section_footer" data-name="section footer"><g id="logo_video" data-name="logo video"><polygon class="cls-1" points="85.51 74.05 85.51 24.68 42.76 0 0 24.68 0 74.05 42.76 98.74 85.51 74.05"></polygon><g id="a_logo"><path class="cls-2" d="M22.43,15.68V37.22L3.75,26.5ZM22,38,3.31,27.23V48.77Zm0,22.93L3.31,50.16V71.71ZM3.75,49.44,22.43,60.16V38.61Zm0,22.93L22.43,83.09V61.55ZM41.89,26.45,23.21,15.73V37.27ZM62.13,60.21V38.66L43.45,49.4Zm-19-33V48.71L61.78,38Zm0,23V71.73L61.78,61Z"></path><path class="cls-3" d="M23.38,14.64l-.61.34h0V37.91h0v23h0V83.87h0l.61.36L42.06,95l.61.35V72.46h0V49.52h0V26.59h0V3.65L42.06,4ZM41.89,26.45,23.21,37.19V15.64Zm.78,45.92L42.06,72,23.38,61.29l-.61-.36h0l.61.36L42.06,72l.61.36Zm0-22.94-.61-.35L23.38,38.36,22.77,38h0l.61.36L42.06,49.08l.61.35Zm39.79-23-.61-.36L63.17,15.36,62.56,15V37.94h0V60.87h0V83.81l.61-.34L81.85,72.73l.61-.34h0V49.46h0v-23ZM81.85,49.8,63.17,60.53l-.61.34h0l.61-.34L81.85,49.8l.61-.34h0ZM3.49,26.14l-.61.34h0V49.41h0V72.35h0l.61.35L22.16,83.42l.61.36V60.85h0V38h0V15.06l-.61.34Zm-.18,1L22,37.86,3.31,48.6ZM22.43,38.61V60.16L3.75,49.44ZM3.31,71.71V50.16L22,60.88ZM22.43,83.18,3.75,72.46,22.43,61.72Zm.34-22.25-.6-.36L3.49,49.86l-.61-.36h0l.61.36L22.17,60.57l.6.36Zm-.34-23.71L3.75,26.5,22.43,15.76ZM62,14.64,43.28,3.92l-.61-.36V26.5h0V49.43h0V72.37h0V95.3l.61-.33L62,84.23l.61-.34h0V61h0V38h0V15h0ZM43.1,27.16,61.78,37.88,43.1,48.62ZM62,61.29,43.28,72l-.61.34h0l.61-.34L62,61.29l.61-.33h0Zm-.17-.38L43.1,71.65V50.1ZM43.54,49.46,62.21,38.72V60.27Zm19-11.52-.61.33L43.28,49l-.61.34h0l.61-.34L62,38.27l.61-.33Z"></path><polygon class="cls-4" points="22.43 60.16 23.64 64.7 43.02 57.33 42.76 52.89 22.43 60.16"></polygon><path class="cls-5" d="M42.58,4.37,81.76,27V72L43,94.34,3.83,71.74v-45L42.58,4.37m.17-1-39.87,23v46l39.87,23,39.88-23v-46l-39.88-23Z"></path></g></g></g></g></g></svg> 