<?xml version="1.0" encoding="UTF-8"?> <svg xmlns="http://www.w3.org/2000/svg" viewBox="0 0 21.77 21.81"><defs><style>.cls-1{fill:#424153;}</style></defs><title>icon_phone_price</title><g id="Layer_2" data-name="Layer 2"><g id="Layer_1-2" data-name="Layer 1"><path class="cls-1" d="M17.22,13.51a2.15,2.15,0,0,0-1.56-.72,2.23,2.23,0,0,0-1.57.71L12.63,15l-.35-.18-.46-.24A15.8,15.8,0,0,1,8,11.07a9,9,0,0,1-1.25-2c.38-.34.73-.7,1.07-1l.39-.39a2.12,2.12,0,0,0,0-3.18L7,3.23l-.43-.44c-.27-.28-.56-.58-.86-.85a2.2,2.2,0,0,0-1.54-.68,2.26,2.26,0,0,0-1.57.68h0L1,3.53A3.31,3.31,0,0,0,0,5.67,8,8,0,0,0,.61,9.08,19.64,19.64,0,0,0,4.13,15a21.58,21.58,0,0,0,7.21,5.65,11.24,11.24,0,0,0,4.05,1.2h.29a3.49,3.49,0,0,0,2.66-1.15v0a10.49,10.49,0,0,1,.81-.83l.6-.59a2.34,2.34,0,0,0,.69-1.6A2.2,2.2,0,0,0,19.74,16Zm1.65,4.84h0c-.18.2-.37.37-.57.57a9.67,9.67,0,0,0-.88.92,2.26,2.26,0,0,1-1.73.73h-.22a10,10,0,0,1-3.59-1.07,20.45,20.45,0,0,1-6.79-5.32A18.63,18.63,0,0,1,1.78,8.65a6.55,6.55,0,0,1-.52-2.88A2.1,2.1,0,0,1,1.9,4.4L3.47,2.83a1,1,0,0,1,.7-.33,1,1,0,0,1,.67.33h0c.28.26.55.53.83.82l.44.45L7.37,5.37a.87.87,0,0,1,0,1.42L7,7.19c-.39.39-.76.76-1.16,1.12l0,0a.93.93,0,0,0-.24,1v0a10.29,10.29,0,0,0,1.49,2.43h0a16.63,16.63,0,0,0,4.08,3.72,5.33,5.33,0,0,0,.57.31c.16.08.32.16.45.24l.06,0a1,1,0,0,0,.45.12.94.94,0,0,0,.7-.32L15,14.38a1,1,0,0,1,.69-.35,1,1,0,0,1,.67.34h0l2.53,2.53A.91.91,0,0,1,18.87,18.35Z"></path><path class="cls-1" d="M11.77,5.19A5.91,5.91,0,0,1,16.59,10a.62.62,0,0,0,.61.52h.11a.62.62,0,0,0,.51-.72A7.18,7.18,0,0,0,12,4a.63.63,0,0,0-.72.51A.62.62,0,0,0,11.77,5.19Z"></path><path class="cls-1" d="M21.77,9.62A11.82,11.82,0,0,0,12.16,0,.62.62,0,1,0,12,1.23a10.55,10.55,0,0,1,8.59,8.59.61.61,0,0,0,.61.52h.11A.62.62,0,0,0,21.77,9.62Z"></path></g></g></svg> 