<?xml version="1.0" encoding="UTF-8"?> <svg xmlns="http://www.w3.org/2000/svg" viewBox="0 0 18 18"><defs><style>.cls-1{fill:#fff097;}</style></defs><title>ql_icon_phone</title><g id="Layer_2" data-name="Layer 2"><g id="Layer_1-2" data-name="Layer 1"><g id="section_quality" data-name="section quality"><g id="button_contact" data-name="button contact"><g id="Page-1"><g id="Core"><g id="settings-phone"><path id="Shape" class="cls-1" d="M10,6H8V8h2V6Zm4,0H12V8h2V6Zm3,6.5a11.33,11.33,0,0,1-3.6-.6,1.23,1.23,0,0,0-1,.2l-2.2,2.2A15.57,15.57,0,0,1,3.6,7.7L5.8,5.5a.8.8,0,0,0,.2-1A13.45,13.45,0,0,1,5.5,1a.94.94,0,0,0-1-1H1A.94.94,0,0,0,0,1,17,17,0,0,0,17,18a.94.94,0,0,0,1-1V13.5a.94.94,0,0,0-1-1ZM16,6V8h2V6Z"></path></g></g></g></g></g></g></g></svg> 