<?xml version="1.0" encoding="UTF-8"?> <!-- Generator: Adobe Illustrator 22.0.1, SVG Export Plug-In . SVG Version: 6.00 Build 0) --> <svg xmlns="http://www.w3.org/2000/svg" xmlns:xlink="http://www.w3.org/1999/xlink" id="Layer_1" x="0px" y="0px" viewBox="0 0 32.2 53.7" style="enable-background:new 0 0 32.2 53.7;" xml:space="preserve"> <style type="text/css"> .st0{fill:none;} .st1{fill:url(#SVGID_1_);} .st2{display:none;fill:#ED1C26;stroke:#ED1C26;stroke-width:4;stroke-miterlimit:10;} .st3{fill:#FFFFFF;} .st4{fill:#E60100;} .st5{opacity:0.25;} .st6{fill:#E60101;} .st7{fill:#E0E0E0;} .st8{fill:#F4C3C3;} .st9{fill:#620B0F;} .st10{fill:#FFB9B0;} .st11{fill:#EA1818;} .st12{opacity:0.35;} .st13{fill:#7762EF;} .st14{fill:#F2F2F2;} .st15{fill:#FF7680;} .st16{fill:#F2C2C2;} .st17{fill:#EFBBBB;} .st18{fill:#F4A4A4;} .st19{fill:#ED8585;} .st20{fill:#FF5C5C;} .st21{fill:#EAE6FF;} .st22{fill:url(#SVGID_2_);} .st23{fill:url(#SVGID_3_);} .st24{fill:url(#SVGID_4_);} .st25{fill:url(#SVGID_5_);} .st26{fill:url(#SVGID_6_);} .st27{fill:#F2A181;} .st28{fill:#5E5DBB;} .st29{fill:#B4B4DB;} .st30{fill:url(#SVGID_7_);} .st31{fill:#FE7F2D;} .st32{fill:#170D54;} .st33{fill:url(#SVGID_8_);} .st34{fill:#FFBE9D;} .st35{fill:url(#SVGID_9_);} .st36{fill:#E9E6FF;} .st37{fill:#FFFBDC;} .st38{fill:url(#SVGID_10_);} .st39{fill:#3939D3;} .st40{fill:#FEFEFE;} .st41{fill:url(#SVGID_11_);} .st42{fill:url(#SVGID_12_);} .st43{fill:#F9D04E;} .st44{fill:#FCB1B1;} .st45{fill:url(#SVGID_13_);} .st46{fill:#FF4824;} .st47{opacity:0.3;fill:#FFFFFF;enable-background:new ;} .st48{fill:url(#SVGID_14_);} </style> <g> <rect class="st0" width="32.2" height="51.1"></rect> <linearGradient id="SVGID_1_" gradientUnits="userSpaceOnUse" x1="23.6902" y1="51.105" x2="36.0472" y2="27.5742" gradientTransform="matrix(1 0 0 -1 0 53)"> <stop offset="0" style="stop-color:#FDCF62"></stop> <stop offset="0.2645" style="stop-color:#FAAD61"></stop> <stop offset="0.5095" style="stop-color:#F58461"></stop> </linearGradient> <path class="st1" d="M14.9,0.3c0,0-1.7,5.7,4.5,4.3c0,0,5.6-1.4,2.9,4c0,0-2.4,3.9,1.8,4.2c0,0,2.6-0.4,4.4,2.2c0,0,1.7,2.1,3.7,1 V0H15L14.9,0.3z"></path> </g> <path class="st2" d="M17,34c-1.7,1.6-3.6,2.4-6.1,2.4c-5.2,0-8.6-3.5-8.6-9.1c0-5.5,3.4-9,8.6-9c2.3,0,4.1,0.8,5.5,2l2-1.8 c-1.6-1.4-4.2-2.7-7.5-2.7c-3.7,0-6.8,1.2-8.9,3.3v16.6c2.1,2.1,5.2,3.2,8.6,3.2c3.6,0,6.3-1.2,8.4-3.2L17,34z"></path> <g> <path class="st3" d="M-0.1,13.7v6.8L-6,17.2L-0.1,13.7z M-0.1,35.1v-6.8L-6,31.7L-0.1,35.1z M-6.2,17.4v6.8l5.9-3.4L-6.2,17.4z M-6.2,24.7v6.8l5.9-3.4L-6.2,24.7z M-0.1,27.8V21L-6,24.4L-0.1,27.8z"></path> <path class="st4" d="M-0.1,21v6.8L-6,24.4L-0.1,21 M0,20.8l-0.2,0.1l-5.9,3.4l-0.2,0.1l0.2,0.1l5.9,3.4L0,28.1v-0.2V21V20.8L0,20.8 z M-6.2,24.7l5.9,3.4l-5.9,3.4V24.7 M-6.3,24.4v0.2v6.8v0.2l0.2-0.1l5.9-3.4L0,28.1l-0.2-0.1l-5.9-3.4L-6.3,24.4L-6.3,24.4z M-6.2,17.4l5.9,3.4l-5.9,3.4V17.4 M-6.3,17.1v0.2v6.8v0.2l0.2-0.1l5.9-3.4L0,20.8l-0.2-0.1l-5.9-3.4L-6.3,17.1L-6.3,17.1z M-0.1,13.7v6.8L-6,17.2L-0.1,13.7 M0,13.5l-0.2,0.1L-6.1,17l-0.2,0.1l0.2,0.1l5.9,3.4L0,20.8v-0.2v-6.8V13.5L0,13.5z M-0.1,28.3 v6.8L-6,31.7L-0.1,28.3 M0,28.1l-0.2,0.1l-5.9,3.4l-0.2,0.1l0.2,0.1l5.9,3.4L0,35.3v-0.2v-6.8V28.1L0,28.1z"></path> <polygon class="st3" points="6,17.1 0.1,13.7 0.1,20.6 "></polygon> <path class="st4" d="M18.9,17.2L18.7,17l-5.9-3.4l-0.2-0.1v0.2v6.8v0.2v0V21v6.8v0.2v0.2v0.1v6.8v0.2l0.2-0.1l5.9-3.4l0.2-0.1l0,0 v-0.2v-6.8v-0.1v-0.2v-0.2v-6.8L18.9,17.2L18.9,17.2z M18.9,24.4L18.9,24.4L18.9,24.4L18.9,24.4z"></path> <polygon class="st4" points="12.4,13.4 6.5,10 6.3,9.9 6.3,10.1 6.3,16.9 6.3,17.2 6.5,17 12.4,13.6 12.6,13.5 "></polygon> <polygon class="st4" points="12.4,13.6 6.5,17 6.3,17.1 6.5,17.3 12.4,20.7 12.6,20.8 12.6,20.6 12.6,13.7 12.6,13.5 "></polygon> <g> <polygon class="st3" points="6.6,24.4 12.5,21 12.5,27.8 "></polygon> <polygon class="st3" points="12.3,20.8 6.4,24.2 6.4,17.4 "></polygon> <polygon class="st3" points="12.3,28.1 6.4,31.5 6.4,24.6 "></polygon> </g> <polygon class="st4" points="12.4,28.2 6.5,31.6 6.3,31.7 6.5,31.8 12.4,35.2 12.6,35.3 12.6,35.1 12.6,28.3 12.6,28.1 "></polygon> <g class="st5"> <path class="st4" d="M6.4,17.4v6.8l5.9-3.4L6.4,17.4 M6.3,17.1l0.2,0.1l5.9,3.4l0.2,0.1l-0.2,0.1l-5.9,3.4l-0.2,0.1v-0.2v-6.8 V17.1L6.3,17.1z"></path> <path class="st4" d="M6.4,24.6v6.8l5.9-3.4L6.4,24.6 M6.3,24.4l0.2,0.1l5.9,3.4l0.2,0.1l-0.2,0.1l-5.9,3.4l-0.2,0.1v-0.2v-6.8 V24.4L6.3,24.4z"></path> <path class="st4" d="M12.5,21l-5.9,3.4l5.9,3.4V21 M12.6,20.8V21v6.8v0.2l-0.2-0.1l-5.9-3.4l-0.2-0.1l0.2-0.1l5.9-3.4L12.6,20.8 L12.6,20.8z"></path> </g> <polygon class="st4" points="12.4,35.2 6.5,31.8 6.3,31.7 6.3,31.9 6.3,38.7 6.3,39 6.5,38.9 12.4,35.4 12.6,35.3 "></polygon> <path class="st6" d="M6.3,31.6v-0.1v-6.8v-0.2h0.1l-0.1-0.3l0,0v-6.8v-0.2v0v-0.2v-6.8V9.9L6.1,10l-5.9,3.4L0,13.5l0,0v0.2v6.8v0.1 l-0.1,0v0.2l0.1,0V21v6.8v0.1l-0.1,0v0.3L0,28.2v0.1v6.8v0.2l0,0l0.2,0.1l5.9,3.4L6.3,39v-0.2v-6.8v-0.2l0.1,0 C6.4,31.7,6.3,31.7,6.3,31.6z M0.1,13.7L6,17.1l-5.9,3.4V13.7z"></path> </g> <g> <ellipse class="st7" cx="22" cy="39" rx="3.8" ry="0.9"></ellipse> <g> <path class="st8" d="M29.9,22.4c-0.1,0-0.1,0-0.1-0.1c0-0.1,0-0.1,0.1-0.1l0.9-0.1c0.1,0,0.1,0,0.1,0.1c0,0.1,0,0.1-0.1,0.1 L29.9,22.4C29.9,22.4,29.9,22.4,29.9,22.4z"></path> <g> <path class="st9" d="M21.6,21.6c-0.2,0.3,0,0.8-0.2,1.1c-0.1,0.1-0.2,0.2-0.2,0.4c0,0.1,0,0.3,0.1,0.3c0.1,0.1,0.2,0.1,0.4,0 c0,0,0,0,0.1,0c0.1,0,0.2,0.1,0.3,0.1c0.1,0.1,0.2,0.1,0.3,0.1c0.1,0,0.2-0.2,0.3-0.3c0.1-0.4,0-0.9-0.1-1.3 c-0.1-0.2-0.2-0.4-0.4-0.5"></path> </g> <path class="st10" d="M17.2,25.1c0,0-0.1,0.1,0,0.2c0.1,0.2,0.4,0.5,0.8,0.4c0,0,2.1,1.2,2.3,1.2c0.2,0,1.3-1,1.6-2.3 c0.1-0.3,0.1-0.7-0.2-0.8c0,0-0.2,0.1-0.4,0.4c-0.2,0.5-1,1.9-1.1,2c-0.2-0.1-1.2-0.4-1.9-0.7c-0.2-0.1-0.2-0.1-0.3-0.3 c-0.1-0.1-0.2-0.4-0.3-0.5c0,0-0.5-0.3-0.5-0.2c0,0,0.1,0.2,0.3,0.3c0.1,0.1,0.1,0.2,0.2,0.2c0,0.1-0.3,0-0.4,0.1 C17.2,24.9,17.2,25.1,17.2,25.1z"></path> <g> <path class="st11" d="M21.7,23.7c-0.3,0.1-0.5,0.2-0.6,0.5c0,0.1-0.1,0.1-0.1,0.2c-0.1,0.3-0.3,0.5-0.4,0.8 c0.2,0.1,0.3,0.2,0.5,0.2c0.1,0.1,0.3,0.1,0.5,0.1c0,0,0.1,0,0.1,0c0,0,0.1,0,0.1-0.1c0-0.1,0.1-0.1,0.1-0.2c0,0,0.1-0.1,0.1-0.2 c0-0.1,0-0.2,0-0.3"></path> </g> <g class="st12"> <path class="st13" d="M21.5,24.5C21.5,24.4,21.5,24.4,21.5,24.5c0.1,0,0.1,0,0.1,0c0,0,0,0.1,0,0.1c0,0.1,0,0.2-0.1,0.3l0,0.6 c0,0,0,0,0,0c-0.1,0-0.3,0-0.4-0.1c-0.1,0-0.1,0-0.2-0.1C21,25,21.2,24.7,21.5,24.5z"></path> </g> <path class="st10" d="M22.4,23.1c0,0,0,0.4,0,0.4c-0.1,0-0.2,0.1-0.2,0.1l0,0.8l1-0.2l0.7-0.4c0,0-0.7-0.2-0.7-0.3 c0-0.1,0-0.5,0-0.5"></path> <g> <path class="st10" d="M24,34.3C24,34.3,24,34.3,24,34.3c0.3,1.3,0.1,3.2,0.2,4.2c0,0-0.4,0.1-0.4,0.1s-0.9-4.3-1-5.1 c0-0.1,0-0.1,0-0.2c0-0.6,0.5-0.6,0.8-0.1c0.1,0.1,0.1,0.2,0.1,0.3c0,0,0,0.1,0.1,0.1l0,0c0.1,0.1,0.1,0.3,0.1,0.4l0,0 c0,0,0,0.1,0,0.1l0,0C24,34.3,24,34.3,24,34.3z"></path> <path class="st10" d="M22.3,29.5c0,0.1,0.1,0.6,0.1,1.3c0.1,0.5,0.1,1.1,0.2,1.6c0,0.4,0.1,0.6,0.1,0.8c0,0.1,0,0.2,0,0.2v0 c0.1,0.6,0.6,0.7,0.8,0.5c0,0,0.1,0,0.1-0.1c0.1-0.1,0.1-0.1,0.1-0.2v0c0-0.1,0-0.3,0-0.5v0c0,0,0,0,0,0l0,0 c0-0.4,0.1-0.9,0.1-1.4c0-0.6,0-1.2,0.1-1.5c0,0,0,0,0-0.1c0-1-0.9-1.7-1.5-1.4c0,0,0,0,0,0c0,0,0,0,0,0c-0.1,0-0.1,0.2-0.1,0.4 C22.3,29.3,22.3,29.4,22.3,29.5z"></path> <path class="st10" d="M23.8,33.4l0.1-0.3c0,0,0,0,0,0c0,0.1,0,0.5,0.1,0.9l0,0c0,0,0,0.1,0,0.1l0,0c0,0.1,0,0.1,0,0.1 c0,0,0,0,0,0c0,0.1-0.3-0.4-0.3-0.5c0,0,0,0,0,0l0.1-0.3L23.8,33.4z"></path> </g> <g> <path class="st10" d="M21.7,34.6C21.7,34.6,21.7,34.6,21.7,34.6c0,1.4-0.4,3.1-0.5,4.1c0,0-0.4,0-0.4,0s-0.1-4.3-0.1-5.2 c0-0.1,0-0.1,0-0.2c0.1-0.6,0.6-0.5,0.8,0.1c0,0.1,0.1,0.2,0.1,0.3c0,0,0,0.1,0,0.1l0,0c0,0.1,0,0.3,0.1,0.5l0,0c0,0,0,0.1,0,0.1 l0,0C21.7,34.5,21.7,34.6,21.7,34.6z"></path> <path class="st10" d="M21.4,34C21.5,34,21.5,34,21.4,34c0.2-0.1,0.2-0.1,0.2-0.2l0,0c0-0.1,0.1-0.3,0.1-0.5c0,0,0,0,0,0l0,0 c0.1-0.4,0.2-0.9,0.3-1.4c0.1-0.6,0.2-1.2,0.3-1.5c0,0,0.1-0.3,0.1-0.3c0.2-1-0.6-1.7-1.2-1.5c0,0,0,0,0,0 c-0.1,0-0.1,0.5-0.2,0.7c0,0.3-0.2,3.2-0.3,3.7c0,0.1,0,0.2,0,0.2C20.8,34,21.2,34.1,21.4,34z"></path> <path class="st10" d="M21.7,33.6l0.1-0.2c0,0,0,0,0,0c0,0.1-0.1,0.5-0.1,1l0,0c0,0,0,0.1,0,0.1l0,0c0,0.1,0,0.1,0,0.1 c0,0,0,0,0,0c0,0.1-0.2-0.5-0.2-0.6c0,0,0,0,0,0l0.1-0.3L21.7,33.6z"></path> </g> <path class="st9" d="M23.5,27.5c0,0,0.8,1,0.7,1.9c0,0.4-0.1,0.8-0.1,1.2c0,0.1-0.1,0.9-0.1,0.9c0,0-1.6,0.5-3.1-0.1 c0-0.1-0.1-2.1,0.7-4C22.6,27.6,23.5,27.5,23.5,27.5z"></path> <path class="st11" d="M21.1,25.3c0,0.3,0.2,0.4,0.4,0.7c0,0,0.1,0.7,0.1,1.1c0,0.2-0.1,0.3,0,0.4c0.3,0.3,1.4,0.5,1.9,0.1 c-0.1-0.4,0.1-1.4,0.3-1.9c0-0.1,0-0.1,0.1-0.2c0.1-0.4,0.3-1.6,0.2-1.6c0,0-0.1,0-0.1,0c-0.3-0.1-0.6-0.2-0.6-0.2 s-0.2,0.7-0.8,0.7c-0.3-0.1-0.3-0.5-0.3-0.7c-0.1,0-0.2,0.1-0.5,0.2c-0.1,0.1,0,0.4-0.2,0.8C21.4,24.6,21.1,25,21.1,25.3z"></path> <path class="st10" d="M21.6,21.5c0,0-0.1,0.7,0.1,1.1c0.1,0.3,0.5,0.5,0.8,0.5c0.9,0,1-1.2,1-1.2c0-0.1-1.3-0.6-1.3-0.6L21.6,21.5 z"></path> <path class="st14" d="M21.5,28.7"></path> <g> <path class="st11" d="M20,39.1c0.3,0.1,0.6,0,0.8,0c0.1,0,0.4,0.1,0.5,0c0.1-0.1,0.1-0.4,0-0.5c0,0,0,0-0.1,0c-0.1,0-0.2,0-0.4,0 c-0.2,0.1-0.2,0.1-0.5,0.2c-0.1,0-0.3,0.1-0.3,0.1C19.8,38.9,19.8,39.1,20,39.1z"></path> </g> <g> <path class="st11" d="M23.3,39.2c0.3-0.1,0.5-0.2,0.6-0.2c0.1,0,0.4-0.1,0.4-0.2c0-0.1-0.1-0.4-0.2-0.4c0,0,0,0-0.1,0 c-0.1,0-0.2,0.1-0.4,0.1c-0.2,0.2-0.2,0.2-0.4,0.4c-0.1,0.1-0.2,0.1-0.3,0.2C23,39.2,23.1,39.3,23.3,39.2z"></path> </g> <g> <path class="st10" d="M27.8,24.8l-0.3-0.3L25.8,26c0,0-0.8-1.1-1.1-1.5c-0.3-0.4-0.5-0.7-0.9-0.8c-0.1,0.1,0,1.4,0.1,1.5 c0.5,0.4,1.5,1.7,1.9,1.7C26.2,27,27.8,24.8,27.8,24.8z"></path> <path class="st11" d="M23.7,23.7c0,0,0.4,0,0.5,0.1c0.2,0.1,0.9,1.3,0.9,1.3s0,0.2-0.2,0.4c-0.2,0.2-0.5,0.2-0.5,0.2 s-0.4-0.4-0.6-0.5c-0.1-0.1-0.1,0.2-0.1,0.2l-0.6-0.6L23.7,23.7z"></path> </g> <g> <path class="st9" d="M24,23.7C24,23.7,24,23.7,24,23.7c0.2-0.1,0.2-0.2,0.3-0.3c0.1-0.2,0.1-0.4,0-0.6c-0.1-0.1-0.2-0.2-0.2-0.3 c-0.1-0.1-0.1-0.3-0.1-0.5c0-0.2,0-0.3,0-0.5c-0.1-0.3-0.1-0.5-0.4-0.7c-0.3-0.3-1-0.5-1.4-0.1c-0.1,0.1-0.1,0.1-0.2,0.1 c-0.1,0-0.2,0-0.3,0.1c-0.1,0.1-0.3,0.2-0.3,0.3c0,0.1,0.1,0.3,0.2,0.3c0,0,0.1,0,0.1,0c0.1,0,0.3-0.1,0.4-0.1 c0.1,0,0.1,0,0.2,0.1c0.1,0.1,0,0.2,0.1,0.2c0.1,0.1,0.2,0.1,0.4,0.2c0,0,0,0,0,0c0,0,0,0,0,0.1c0,0.1,0,0.1,0,0.2 c0.1,0,0.1-0.1,0.1-0.1c0,0,0.1,0,0.2,0c0,0,0.1,0.1,0.1,0.2c0,0.1,0,0.1,0,0.2c0,0.1-0.1,0.2-0.2,0.2c-0.1,0.1,0,0.2,0,0.3 c0,0.1,0,0.2-0.1,0.3c-0.1,0-0.2,0-0.2,0.1c0,0.1,0.1,0.2,0.2,0.2c0.1,0,0.2,0,0.3-0.1c0.1,0,0.2-0.1,0.3,0 c0.1,0,0.1,0.1,0.2,0.1C23.8,23.8,23.9,23.7,24,23.7z"></path> </g> <g> <path class="st10" d="M27.1,24.9c0,0,0.4-0.3,0.4-0.4c0-0.1,0-0.2,0.1-0.3c0-0.1,0.2-0.2,0.3-0.3c0.1,0,0.1-0.1,0.2-0.1 c0.2,0,0.2,0.2,0.3,0.3c0.3,0.5-0.5,0.6-0.5,0.6c-0.1,0-0.3,0.3-0.3,0.3"></path> </g> <g> <path class="st15" d="M28.4,24.6l-0.3,0.2c0,0-0.1,0-0.1,0l-0.6-1l0.4-0.2l0.7,1C28.4,24.5,28.4,24.6,28.4,24.6z"></path> <g> <path class="st16" d="M29.4,22.4L29.4,22.4l-0.5-0.5l0.1-0.1c0.1-0.1,0.3,0,0.4,0.1l0,0C29.6,22.1,29.5,22.3,29.4,22.4z"></path> <polygon class="st8" points="29.8,23.1 28,23.4 27.6,22.8 28.5,21.2 "></polygon> <polygon class="st17" points="29.6,23.1 28,23.4 27.8,23.1 29.2,22.5 "></polygon> <path class="st8" d="M27.2,23.8L27.2,23.8c-0.1,0.1-0.2,0-0.3-0.1l-0.1-0.1c-0.1-0.1-0.1-0.3,0-0.3l0,0c0.1-0.1,0.2,0,0.3,0.1 l0.1,0.1C27.3,23.6,27.3,23.7,27.2,23.8z"></path> <path class="st17" d="M27.2,23.4l0.1,0.1c0.1,0.1,0.1,0.3,0,0.3c-0.1,0.1-0.2,0-0.3-0.1l-0.1-0.1c0,0,0,0,0,0 c0.1,0.1,0.2,0.1,0.3,0.1C27.2,23.6,27.2,23.5,27.2,23.4C27.2,23.4,27.2,23.4,27.2,23.4z"></path> <path class="st18" d="M29.8,23.2L29.8,23.2c-0.1,0-0.1,0-0.2,0l-1.2-1.8c0-0.1,0-0.1,0-0.2l0,0c0.1,0,0.1,0,0.2,0l1.2,1.8 C29.9,23,29.9,23.1,29.8,23.2z"></path> <path class="st19" d="M28.4,21.2l1,1.5c0,0.1,0.1,0.1,0.2,0c0,0,0,0,0,0l0.2,0.3c0,0.1,0,0.1,0,0.2c-0.1,0-0.1,0-0.2,0l-1.2-1.8 C28.4,21.3,28.4,21.2,28.4,21.2z"></path> <path class="st20" d="M27.8,23.7l-0.1,0.1c-0.2,0.1-0.4,0.1-0.6-0.1L27,23.5c-0.1-0.2-0.1-0.4,0.1-0.6l0.1-0.1 c0.2-0.1,0.4-0.1,0.6,0.1l0.1,0.2C28,23.3,28,23.6,27.8,23.7z"></path> <path class="st15" d="M27.9,23.1l0.2,0.3c0,0.1,0,0.1,0,0.2l-0.5,0.4c-0.1,0-0.1,0-0.2,0l-0.2-0.3c0,0.1,0.1,0.1,0.2,0l0.5-0.4 C27.9,23.3,27.9,23.2,27.9,23.1z"></path> </g> </g> <g> <path class="st10" d="M28.3,24.3c0-0.2,0-0.3-0.1-0.4c0,0-0.1-0.1-0.1-0.1c0,0,0,0-0.1,0c0,0-0.1,0-0.1,0c0,0-0.1,0.1-0.1,0.1 c0,0.1,0,0.1,0.1,0.2c0,0,0,0,0,0c0,0,0,0,0,0c0,0,0,0.1,0,0.1c0,0,0,0.1,0.1,0.1c0,0,0,0,0.1,0c0,0,0,0,0,0c0,0,0,0.1,0,0.1 c0,0,0,0,0,0c0,0,0,0,0,0c0,0,0.1,0,0.1,0"></path> </g> <g> <path class="st10" d="M27.5,24.5c0-0.1,0-0.2,0-0.2c0-0.2,0.1-0.3,0.2-0.4c0,0,0,0,0,0c0,0,0,0,0,0c0,0,0,0,0,0.1 c0,0.1-0.1,0.1-0.1,0.2c0,0.1,0.1,0.2,0.1,0.3c0,0.1,0,0.2-0.1,0.2"></path> </g> <path class="st8" d="M29.3,21.3C29.2,21.3,29.2,21.3,29.3,21.3c-0.1,0-0.1-0.1-0.1-0.2l0.4-0.8c0-0.1,0.1-0.1,0.2-0.1 c0.1,0,0.1,0.1,0.1,0.2l-0.4,0.8C29.4,21.3,29.3,21.3,29.3,21.3z"></path> <path class="st8" d="M29.6,21.8C29.6,21.8,29.6,21.8,29.6,21.8c-0.1-0.1-0.1-0.2-0.1-0.2l0.7-0.6c0.1,0,0.1,0,0.2,0 c0,0.1,0,0.1,0,0.2L29.6,21.8C29.7,21.8,29.7,21.8,29.6,21.8z"></path> </g> </g> <g> <ellipse class="st21" cx="8.1" cy="48.4" rx="3.8" ry="0.4"></ellipse> <path class="st9" d="M6.1,47.8c0,0.1-0.2,0.2-0.4,0.3c-0.2,0.1-0.7,0.1-0.4,0.2c0.3,0.1,0.5,0,0.7,0c0.1,0,0.3,0,0.5,0 c0.2,0,0.2,0,0.2-0.3C6.6,47.7,6.2,47.6,6.1,47.8z"></path> <path class="st9" d="M10.3,47.7c0,0.1,0.1,0.3-0.1,0.5c-0.2,0.2-0.6,0.3-0.3,0.3c0.3,0,0.5-0.1,0.7-0.1c0.1-0.1,0-0.2,0.2-0.2 c0.2-0.1,0.2-0.2,0.1-0.3C10.6,47.4,10.3,47.4,10.3,47.7z"></path> <linearGradient id="SVGID_2_" gradientUnits="userSpaceOnUse" x1="6.278" y1="38.1321" x2="14.653" y2="43.2571"> <stop offset="0" style="stop-color:#BF2626"></stop> <stop offset="0.9948" style="stop-color:#4D0000"></stop> </linearGradient> <path class="st22" d="M9.4,40.4c0,0,0.6-1.6-1-3c0,0-0.8,0.3-1.5,0.4c-0.5,0-0.8,0-0.8,0s0,1.4,0,2.2L9.4,40.4z"></path> <linearGradient id="SVGID_3_" gradientUnits="userSpaceOnUse" x1="3.1343" y1="43.2693" x2="11.5093" y2="48.3943"> <stop offset="0" style="stop-color:#BF2626"></stop> <stop offset="0.9948" style="stop-color:#4D0000"></stop> </linearGradient> <path class="st23" d="M5.9,43.1c0-0.7,0.8-0.6,1-0.1c0.6,1.1-0.2,3.7-0.3,4.9c-0.1,0-0.3,0.1-0.4,0c-0.1,0-0.1-0.1-0.1-0.1 C6.1,46.3,5.9,43.8,5.9,43.1z"></path> <linearGradient id="SVGID_4_" gradientUnits="userSpaceOnUse" x1="5.0485" y1="40.1413" x2="13.4235" y2="45.2663"> <stop offset="0" style="stop-color:#BF2626"></stop> <stop offset="0.9948" style="stop-color:#4D0000"></stop> </linearGradient> <path class="st24" d="M6.9,43.2c-0.1,0.3-1.1,0.6-1-0.5c0-0.5,0.1-3.1,0.2-3.4c0-0.3,0.1-0.6,0.2-0.7c0.6-0.2,1.7,0.6,1.5,1.5 C7.7,40.8,7.1,42.5,6.9,43.2z"></path> <linearGradient id="SVGID_5_" gradientUnits="userSpaceOnUse" x1="3.9851" y1="41.879" x2="12.3601" y2="47.004"> <stop offset="0" style="stop-color:#BF2626"></stop> <stop offset="0.9948" style="stop-color:#4D0000"></stop> </linearGradient> <path class="st25" d="M8.5,43.6c-0.2-0.7,0.5-0.8,1-0.4c1,1,1.1,3.3,1.3,4.5c-0.1,0.1-0.4,0.1-0.5,0.1c-0.1,0-0.1-0.1-0.1-0.1 C9.8,46.3,8.7,44.3,8.5,43.6z"></path> <linearGradient id="SVGID_6_" gradientUnits="userSpaceOnUse" x1="5.4856" y1="39.427" x2="13.8606" y2="44.552"> <stop offset="0" style="stop-color:#BF2626"></stop> <stop offset="0.9948" style="stop-color:#4D0000"></stop> </linearGradient> <path class="st26" d="M9.5,43.3c0,0.3-0.8,0.9-1.1-0.1c-0.1-0.5-0.8-3.2-0.8-3.4c-0.1-0.2-0.1-0.7,0-0.8c0.5-0.4,1.6-0.1,1.8,0.9 C9.5,40.6,9.5,42.7,9.5,43.3z"></path> <g> <g> <path class="st27" d="M5.2,31.5C5.2,31.5,5.3,31.5,5.2,31.5c0.3-0.3,0.3-0.6,0.5-0.9c0,0,0.1-0.2,0.1-0.3 c0.1-0.1,0.3-0.2,0.3-0.2c0.1,0,0,0.1,0,0.1s0.1-0.1,0.1-0.1c0,0,0,0.2,0,0.2c0,0.2,0,0.4-0.2,0.6c0,0-0.1,0.1-0.1,0.1 c0.1,0,0.1,0,0.2-0.1c0.1,0,0.1-0.1,0.2-0.1c0,0,0,0.1,0,0.1c-0.1,0.1-0.2,0.3-0.3,0.4c-0.1,0-0.2,0.1-0.3,0.1 c-0.2,0.1-0.2,0.3-0.4,0.4"></path> </g> <path class="st28" d="M5.9,31.5L5.9,31.5c-0.2-0.1-0.3-0.3-0.2-0.4L6,30.5c0.1-0.2,0.3-0.3,0.4-0.2l0,0c0.2,0.1,0.3,0.3,0.2,0.4 l-0.2,0.5C6.3,31.5,6.1,31.6,5.9,31.5z"></path> <rect x="5.9" y="30.4" transform="matrix(0.9226 0.3859 -0.3859 0.9226 12.4135 1.148997e-02)" class="st29" width="0.6" height="1.1"></rect> <linearGradient id="SVGID_7_" gradientUnits="userSpaceOnUse" x1="3.1448" y1="33.0623" x2="6.6601" y2="33.0623"> <stop offset="0" style="stop-color:#F75800"></stop> <stop offset="1" style="stop-color:#FFBE24"></stop> </linearGradient> <path class="st30" d="M6.7,32.6c0,0-0.4,0-0.8,0.1c-0.5,0.2-0.7,0.4-0.9,0.5c0.4-0.5,0.8-1.4,0.8-1.4s-0.5-0.4-0.5-0.3 c-0.1,0.1-2.1,2.5-2.1,2.9c0,0.2,0.3,0.3,0.5,0.3c0.6,0,1.3-0.2,2-0.5C5.9,34.1,6,34.3,6,34.3"></path> <path class="st31" d="M5,33.2c0,0-0.3,0.5-0.3,0.6c-0.1,0,0.2-0.1,0.3-0.3C5.1,33.4,5.3,33,5.3,33C5.2,33,5,33.2,5,33.2z"></path> <g> <path class="st27" d="M5.8,30.7C5.8,30.7,5.8,30.7,5.8,30.7c0.1,0.2,0.1,0.3,0,0.4c0,0.1-0.1,0.1-0.1,0.2 c-0.1,0.1-0.1,0.1-0.2,0.1"></path> </g> <g> <path class="st32" d="M6.7,29.8c-0.1,0-0.2,0.2-0.3,0.3c-0.1,0.1-0.1,0.3-0.1,0.5c0,0.1,0,0.2,0,0.3c0,0.1,0.1,0.1,0.1,0.1 c0,0,0,0.1,0.1,0.1c0,0,0.1,0,0.1,0c0,0,0.1-0.1,0.1-0.1c0.1-0.3,0.2-0.6,0.3-0.8"></path> </g> <g> <path class="st27" d="M6.5,30.7c0-0.1-0.1-0.2-0.2-0.1c-0.1,0.1-0.1,0.2-0.1,0.3c0,0.1,0.1,0.2,0.2,0.2"></path> </g> <linearGradient id="SVGID_8_" gradientUnits="userSpaceOnUse" x1="5.5387" y1="35.2972" x2="9.1339" y2="35.2972"> <stop offset="0" style="stop-color:#F75800"></stop> <stop offset="1" style="stop-color:#FFBE24"></stop> </linearGradient> <path class="st33" d="M5.6,33c0.2-0.2,0.7-0.5,1.4-0.5c0.5,0,1.8,0.1,2,0.4c0.1,0.2,0.2,1.9,0,2.5c-0.1,0.5-0.3,1.6-0.3,1.8 c0,0.3,0.1,0.4,0.1,0.5C8.7,38,7.7,38,7.2,38C6.7,38,6,37.9,6,37.8c-0.1-0.2,0.1-0.2,0.1-0.4c0-0.2,0.1-1.6,0-1.8 c-0.1-0.4-0.2-1.1-0.3-1.4C5.7,33.9,5.4,33.2,5.6,33z"></path> <path class="st31" d="M8.7,34.5c0.1,0.1,0.4,0.7,0.4,0.7l0,0.1c0,0.1,0,0.2,0,0.3c-0.1,0.5-0.3,1.6-0.3,1.8c0,0.3,0.1,0.4,0.1,0.5 c-0.1,0.2-2.1,0.5-2,0.1c0,0,1.6-1.3,1.6-1.3c0.1-0.4,0.1-0.6,0.2-0.9C8.8,35,8.6,34.3,8.7,34.5z"></path> <path class="st34" d="M6.6,31.9c0,0,0,0.6,0,0.6c0,0-0.1,0.1-0.1,0.1s0.1,0.5,0.2,0.5c0.1,0,0.9-0.4,0.9-0.4s-0.1,0-0.1-0.1 c0,0,0.1-0.9,0.1-0.9"></path> <path class="st34" d="M7.2,29.9c-0.1,0-0.4,0-0.5,0.1c-0.1,0.1-0.2,0.4-0.2,0.5c-0.1,0.2-0.1,0.4-0.2,0.5 c-0.1,0.2-0.2,0.7,0.1,0.8C6.5,31.9,6.5,32,6.6,32c0.1,0,0.2,0,0.3,0.1c0.2,0,0.3,0.1,0.5,0c0.2-0.1,0.3-0.4,0.4-0.6l0.3-1.2 L7.2,29.9z"></path> <path class="st11" d="M6.6,33.3c0,0,0,2.2-0.1,3.6l0.3,0.4L7,36.7c0,0,0.1-1.6-0.2-3.4L6.6,33.3z"></path> <linearGradient id="SVGID_9_" gradientUnits="userSpaceOnUse" x1="6.5427" y1="33.112" x2="6.9711" y2="33.112"> <stop offset="0" style="stop-color:#BF2626"></stop> <stop offset="0.9948" style="stop-color:#4D0000"></stop> </linearGradient> <path class="st35" d="M6.5,33.1L6.5,33.1c0,0.1,0,0.1,0.1,0.2l0,0l0.2,0c0,0,0.1-0.1,0.2-0.1c0-0.1-0.2-0.2-0.2-0.2l0,0 C6.7,33,6.6,33,6.5,33.1L6.5,33.1z"></path> <path class="st3" d="M7.5,32.4c0,0,0.1,0.1,0.2,0.2c-0.1,0.2-0.3,0.7-0.6,0.8c-0.1-0.3-0.4-0.5-0.4-0.5S7.4,32.8,7.5,32.4z"></path> <path class="st3" d="M6.7,32.9c0,0-0.2,0.1-0.4,0.4c0,0,0-0.4,0.1-0.7c0,0,0.2-0.2,0.2-0.2C6.6,32.7,6.7,32.9,6.7,32.9z"></path> <g> <g> <path class="st27" d="M6.8,37.9c-0.2,0-0.3,0.1-0.5,0.3c0,0,0,0,0,0c0,0,0,0,0,0c0.1,0,0.1-0.1,0.2-0.1c0.1,0,0.1-0.1,0.2-0.1"></path> </g> <g> <g> <path class="st36" d="M5.9,36.1l0.9,2.8c0,0.1,0,0.1-0.1,0.1l-1.8,0.2c-0.1,0-0.1-0.1-0.2-0.1l-0.9-2.8c0-0.1,0.1-0.2,0.2-0.2 L5.8,36C5.9,36,5.9,36,5.9,36.1z"></path> </g> <g> <path class="st37" d="M5.9,36.1l0.9,2.8c0,0.1,0,0.1-0.1,0.1l-1.8,0.2c-0.1,0-0.1-0.1-0.2-0.1l-0.9-2.8c0-0.1,0-0.1,0.1-0.1 L5.7,36C5.8,36,5.9,36.1,5.9,36.1z"></path> </g> <g> <polygon class="st3" points="4.4,36.1 4.5,36.3 5.3,36.2 5.3,36 "></polygon> <g> <g> <path class="st3" d="M4.6,35.8c0,0.1,0.1,0.3,0.1,0.3l0.4,0L5,35.8c0-0.1-0.2-0.2-0.3-0.2C4.6,35.6,4.5,35.7,4.6,35.8z M4.7,35.8c0-0.1,0-0.1,0.1-0.1c0.1,0,0.1,0,0.2,0.1c0,0.1,0,0.1-0.1,0.1C4.8,35.9,4.7,35.9,4.7,35.8z"></path> </g> </g> </g> </g> <g> <path class="st34" d="M7.5,37.7c-0.2,0-0.7,0.2-0.8,0.2c-0.1,0-0.3,0.2-0.3,0.2c-0.2,0.2-0.1,0.3-0.2,0.5c0,0,0,0,0,0 c0,0,0,0.1,0.1,0c0,0,0.1,0,0.1,0c0,0,0,0,0.1,0c0,0,0,0,0.1-0.1c0.1,0,0.1-0.1,0.2-0.1c0.1,0,0.1-0.1,0.2-0.1 c0.1-0.1,0.2-0.1,0.3-0.3c0,0,0.1-0.1,0.1-0.1c0.1-0.1,0.2-0.1,0.3-0.2"></path> </g> <linearGradient id="SVGID_10_" gradientUnits="userSpaceOnUse" x1="7.1676" y1="35.4738" x2="9.8819" y2="35.4738"> <stop offset="0" style="stop-color:#F75800"></stop> <stop offset="1" style="stop-color:#FFBE24"></stop> </linearGradient> <path class="st38" d="M8.7,34.1c0.1,0.3,0.4,2.3,0.4,2.3l-1.9,1.4l0.2,0.4c0,0,2.3-0.8,2.5-1.3C10,36.4,10,34,9.3,33.2 c-0.2-0.3-0.6-0.4-0.6-0.4"></path> <g> <path class="st27" d="M6.7,38.4c0,0.1,0,0.2-0.1,0.2c0,0.1-0.1,0.1-0.2,0.1C6.3,38.4,6.5,38.4,6.7,38.4z"></path> </g> <g> <path class="st27" d="M6.6,38.3c0,0.1,0,0.2-0.1,0.2c0,0.1-0.1,0.2-0.2,0.2c-0.1-0.1,0-0.2,0-0.3C6.4,38.3,6.5,38.3,6.6,38.3z"></path> </g> <g> <path class="st27" d="M6.5,38.2c0,0,0,0.1,0,0.1c0,0,0,0.1,0,0.1c0,0.1-0.1,0.1-0.2,0.2c-0.1-0.1-0.1-0.2,0-0.3 c0,0,0.1-0.1,0.1-0.1C6.4,38.2,6.4,38.2,6.5,38.2z"></path> </g> </g> <g> <path class="st9" d="M7.9,31.3c-0.1,0-0.1-0.1-0.2,0c0,0,0,0.1-0.1,0.1c0,0-0.1,0-0.1-0.1c0,0,0-0.1,0-0.1c0-0.1,0.1-0.2,0.1-0.3 c0-0.1,0.1-0.2,0-0.3c0,0-0.1-0.1-0.1-0.1c-0.1-0.1-0.3-0.2-0.4-0.2c-0.2,0-0.3,0-0.5-0.1c-0.1,0-0.1,0-0.2-0.1 c-0.1-0.1-0.1-0.2-0.1-0.3c0-0.1,0-0.2,0.1-0.3c0,0,0,0.1,0,0.1c0-0.1,0-0.1,0.1-0.1c0,0.3,1.1,0.2,1.4,0.3 c0.2,0.1,0.3,0.1,0.3,0.4c0,0,0,0,0,0c0.2,0.1,0.2,0.3,0.2,0.6c0,0.3-0.2,0.7-0.3,0.9c0,0.1-0.1,0.1-0.1,0.2 c-0.1,0-0.2,0.1-0.3,0.1c-0.1,0-0.2,0-0.2-0.1c0-0.1,0.1-0.2,0.2-0.2"></path> </g> <g> <path class="st34" d="M7.6,31.6C7.6,31.6,7.6,31.6,7.6,31.6c0,0.1,0.1,0.1,0.1,0.1c0.1,0,0.2-0.2,0.2-0.3c0-0.1,0-0.3-0.2-0.2 c-0.1,0-0.1,0.1-0.1,0.2"></path> </g> <g> <path class="st27" d="M6.6,32L7,32c0,0-0.1,0.1-0.4,0.1"></path> </g> </g> </g> <g> <g> <g> <polyline class="st39" points="24.5,20 24,20.2 24.3,19.7 "></polyline> </g> <path class="st4" d="M25.9,19.3c0,0.5-0.4,0.9-1,0.9c-0.5,0-1-0.4-1-0.9c0-0.5,0.4-0.9,1-0.9C25.5,18.3,25.9,18.7,25.9,19.3z"></path> </g> <g> <g> <g> <path class="st40" d="M24.8,19.7c0.2,0,0.4,0,0.6,0c0.1,0,0.1-0.1,0-0.1c0,0,0.1,0,0.1-0.1c0,0,0-0.1,0-0.1c0.1,0,0.1-0.1,0-0.1 c0,0,0.1-0.1,0.1-0.1c0,0,0-0.1,0-0.1c0,0-0.1,0-0.1,0c-0.1,0-0.2,0-0.3,0c0-0.1,0-0.3,0-0.4c0,0-0.1-0.1-0.1-0.1 c0,0,0,0.1,0,0.1c0,0.2-0.1,0.3-0.2,0.4C24.8,19.2,24.8,19.5,24.8,19.7z"></path> </g> </g> <rect x="24.4" y="19.2" class="st40" width="0.3" height="0.5"></rect> </g> </g> <g> <path class="st4" d="M4.4,45.8c0.3-0.3,0.4-0.8,0.4-1.2c0-1.1-0.9-2-2-2c-1.1,0-2,0.9-2,2c0,1.1,0.9,2,2,2c0.4,0,0.8-0.1,1.1-0.3 l0.8,0.4L4.4,45.8z"></path> <path class="st3" d="M2,44.1c0.2-0.2,0.5-0.2,0.7,0l0.1,0.1L3,44.1c0.2-0.2,0.5-0.2,0.7,0c0.2,0.2,0.2,0.5,0,0.7l-0.5,0.5 c0,0,0,0,0,0c-0.1,0.1-0.2,0.1-0.3,0.1c-0.1,0-0.3,0-0.4-0.1L2,44.8C1.9,44.6,1.9,44.3,2,44.1z"></path> </g> <g> <g> <g> <linearGradient id="SVGID_11_" gradientUnits="userSpaceOnUse" x1="10.2328" y1="33.3306" x2="10.9493" y2="33.3306"> <stop offset="0" style="stop-color:#F75800"></stop> <stop offset="1" style="stop-color:#FFBE24"></stop> </linearGradient> <polyline class="st41" points="10.9,33.4 10.2,33.8 10.6,32.9 "></polyline> </g> <linearGradient id="SVGID_12_" gradientUnits="userSpaceOnUse" x1="10.1437" y1="32.2856" x2="13.1724" y2="32.2856"> <stop offset="0" style="stop-color:#F75800"></stop> <stop offset="1" style="stop-color:#FFBE24"></stop> </linearGradient> <path class="st42" d="M13.2,32.3c0,0.8-0.7,1.4-1.5,1.4c-0.8,0-1.5-0.6-1.5-1.4c0-0.8,0.7-1.4,1.5-1.4 C12.5,30.9,13.2,31.5,13.2,32.3z"></path> </g> <path class="st40" d="M12,31.8v1c0,0.1-0.1,0.1-0.2,0.1L11,32.4c-0.1,0-0.1-0.1,0-0.2l0.9-0.5C11.9,31.7,12,31.7,12,31.8z"></path> </g> <g> <g> <path class="st43" d="M3.4,3.3c0.2,0.3,0.5,0.4,0.5,0.4C3.7,3.9,3.8,4,3.7,4.2C3.5,4.1,3.4,4,3.2,3.8C3.2,3.6,3.2,3.4,3.4,3.3z"></path> </g> <g> <path class="st43" d="M17,3.6C17.2,3.9,17.5,4,17.5,4c-0.2,0.1-0.2,0.2-0.2,0.4C17.1,4.3,17,4.2,16.8,4C16.8,3.8,16.8,3.7,17,3.6z "></path> </g> <g> <path class="st44" d="M-5.6,7.1c0.3,0.2,0.7,0.2,0.7,0.2C-5,7.5-5,7.6-4.9,7.8c-0.2,0-0.4-0.1-0.6-0.2C-5.7,7.4-5.7,7.3-5.6,7.1z"></path> </g> <g> <path class="st43" d="M-1.5,10.7c0.4-0.2,0.5-0.5,0.5-0.5c0.1,0.2,0.2,0.2,0.4,0.2c-0.1,0.2-0.3,0.3-0.5,0.5 C-1.2,10.9-1.4,10.8-1.5,10.7z"></path> </g> <g> <path class="st44" d="M5.3,8C5.7,8.1,6,8,6,8c0,0.2,0,0.3,0.2,0.5C5.9,8.5,5.7,8.5,5.5,8.5C5.3,8.4,5.3,8.2,5.3,8z"></path> </g> <g> <path class="st44" d="M16.6,8.1c0.2,0.3,0.5,0.4,0.5,0.4c-0.2,0.1-0.2,0.2-0.2,0.4c-0.2-0.1-0.4-0.2-0.5-0.4 C16.3,8.4,16.4,8.2,16.6,8.1z"></path> </g> <g> <path class="st44" d="M29.7,16.2c0.2,0.3,0.5,0.4,0.5,0.4c-0.2,0.1-0.2,0.2-0.2,0.4c-0.2-0.1-0.4-0.2-0.5-0.4 C29.5,16.4,29.6,16.3,29.7,16.2z"></path> </g> <g> <path class="st43" d="M27.7,11.5c0.2,0.3,0.5,0.4,0.5,0.4c-0.2,0.1-0.2,0.2-0.2,0.4c-0.2-0.1-0.4-0.2-0.5-0.4 C27.5,11.7,27.6,11.6,27.7,11.5z"></path> </g> <g> <path class="st43" d="M22.8,11.8c0.4,0,0.7-0.1,0.7-0.1c0,0.2,0.1,0.3,0.2,0.4c-0.2,0.1-0.4,0.1-0.6,0.1 C22.8,12.1,22.8,12,22.8,11.8z"></path> </g> <g> <path class="st43" d="M19.8,21.3c0.4-0.1,0.5-0.4,0.5-0.4c0.1,0.2,0.2,0.2,0.4,0.3c-0.1,0.2-0.3,0.3-0.5,0.4 C20,21.6,19.9,21.5,19.8,21.3z"></path> </g> <g> <path class="st44" d="M23.7,5.3c0.4,0.2,0.7,0,0.7,0c-0.1,0.2,0,0.3,0.1,0.5c-0.2,0-0.4,0-0.6-0.1C23.7,5.7,23.6,5.5,23.7,5.3z"></path> </g> <g> <path class="st43" d="M10.5,5.3c0.4,0.2,0.7,0,0.7,0c-0.1,0.2,0,0.3,0.1,0.5c-0.2,0-0.4,0-0.6-0.1C10.5,5.6,10.5,5.5,10.5,5.3z"></path> </g> <g> <path class="st43" d="M-10.5,17.4c0.4,0.2,0.7,0,0.7,0c-0.1,0.2,0,0.3,0.1,0.5c-0.2,0-0.4,0-0.6-0.1 C-10.5,17.7-10.5,17.6-10.5,17.4z"></path> </g> <g> <path class="st43" d="M-5.7,23.6c0,0.4,0.3,0.6,0.3,0.6c-0.2,0-0.3,0.1-0.4,0.3C-5.9,24.3-6,24.1-6,23.9 C-6,23.7-5.9,23.6-5.7,23.6z"></path> </g> <g> <path class="st44" d="M-6.9,14.1c0.4-0.2,0.5-0.5,0.5-0.5c0.1,0.2,0.2,0.2,0.4,0.3c-0.1,0.2-0.3,0.3-0.5,0.4 C-6.7,14.4-6.8,14.3-6.9,14.1z"></path> </g> <g> <path class="st44" d="M26.1,22.7c0.4-0.1,0.6-0.3,0.6-0.3c0.1,0.2,0.1,0.3,0.3,0.4c-0.2,0.1-0.3,0.2-0.6,0.3 C26.3,23,26.2,22.9,26.1,22.7z"></path> </g> </g> <g id="icon_8_"> <g> <polygon class="st3" points="31.4,51.6 31.4,48.8 29,47.5 26.7,48.8 26.7,51.6 29,52.9 "></polygon> <linearGradient id="SVGID_13_" gradientUnits="userSpaceOnUse" x1="27.1491" y1="48.3416" x2="30.8638" y2="52.0564"> <stop offset="0" style="stop-color:#FFF9A1;stop-opacity:0.2"></stop> <stop offset="1" style="stop-color:#E60100"></stop> </linearGradient> <path class="st45" d="M29,47.6l2.2,1.3v2.6L29,52.8l-2.2-1.3v-2.6L29,47.6 M29,47.5l-2.4,1.4v2.7l2.4,1.4l2.4-1.4v-2.7L29,47.5 L29,47.5z"></path> </g> <g> <path class="st46" d="M31,52.2L31,52.2c-0.1,0-0.1,0-0.1,0C30.8,52.3,30.9,52.3,31,52.2L31,52.2C31,52.3,31,52.3,31,52.2 C31,52.2,31,52.2,31,52.2z"></path> <path class="st46" d="M27.8,49.5C27.8,49.5,27.8,49.5,27.8,49.5l0-0.4c0,0,0,0,0,0s0,0,0,0L27.8,49.5 C27.7,49.5,27.7,49.5,27.8,49.5z"></path> <path class="st46" d="M27.8,49C27.8,49,27.8,49,27.8,49L27.8,49c0-0.1,0-0.1,0-0.1S27.7,48.9,27.8,49L27.8,49 C27.7,49,27.7,49,27.8,49z"></path> <path class="st46" d="M28,50.5C28,50.5,27.9,50.5,28,50.5L28,50.5L28,50.5c-0.1-0.1-0.1-0.1-0.1-0.1s0,0,0,0v0h0c0,0,0,0,0,0 s0,0,0,0h0v0c0,0,0,0,0,0S27.9,50.6,28,50.5L28,50.5L28,50.5C27.9,50.6,28,50.6,28,50.5z"></path> <path class="st46" d="M30.2,49.1L30.2,49.1L30.2,49.1C30.1,49,30.1,49,30.2,49.1C30.1,49,30,49,30,49v0h0c0,0,0,0,0,0s0,0,0,0h0v0 c0,0,0,0,0,0c0,0,0,0,0,0L30.2,49.1L30.2,49.1C30.2,49.1,30.2,49.1,30.2,49.1C30.2,49.1,30.2,49.1,30.2,49.1z"></path> <path class="st46" d="M28.5,50.9c-0.1,0-0.2,0-0.3-0.1l-0.3,0.6l0.4-0.2l0.2,0.4l0.3-0.6c0,0-0.1,0-0.1-0.1 C28.6,51,28.5,50.9,28.5,50.9z"></path> <path class="st46" d="M29.7,50.9c-0.1,0-0.1,0.1-0.2,0.1c-0.1,0-0.1,0-0.2,0.1c0,0-0.1,0.1-0.2,0.1l0.3,0.6l0.2-0.4l0.4,0.2 L29.7,50.9z"></path> <path class="st46" d="M29,49.3c-0.4,0-0.7,0.3-0.7,0.7c0,0.4,0.3,0.7,0.7,0.7s0.7-0.3,0.7-0.7C29.7,49.6,29.4,49.3,29,49.3z M29.3,50.4L29,50.3l-0.3,0.2l0.1-0.3l-0.3-0.2l0.3,0l0.2-0.3l0.2,0.3l0.3,0l-0.3,0.2L29.3,50.4z"></path> <path class="st46" d="M29.5,50.8L29.5,50.8c0.2,0,0.4-0.2,0.4-0.4c0-0.1,0-0.2,0.1-0.3l0,0c0.1-0.1,0.1-0.4,0-0.5l0,0 c-0.1-0.1-0.1-0.2-0.1-0.3c0-0.2-0.2-0.4-0.4-0.4l0,0c-0.1,0-0.2,0-0.3-0.1l0,0c-0.1-0.1-0.4-0.1-0.5,0l0,0 c-0.1,0.1-0.2,0.1-0.3,0.1l0,0c-0.2,0-0.4,0.2-0.4,0.4l0,0c0,0.1,0,0.2-0.1,0.3l0,0c-0.1,0.1-0.1,0.4,0,0.5l0,0 c0.1,0.1,0.1,0.2,0.1,0.3l0,0c0,0.2,0.2,0.4,0.4,0.4l0,0c0.1,0,0.2,0,0.3,0.1l0,0c0.1,0.1,0.4,0.1,0.5,0 C29.3,50.9,29.4,50.8,29.5,50.8z M29,50.8c-0.4,0-0.8-0.4-0.8-0.8c0-0.4,0.4-0.8,0.8-0.8s0.8,0.4,0.8,0.8 C29.8,50.4,29.4,50.8,29,50.8z"></path> </g> <path id="bg-light" class="st47" d="M31.3,48.9C31.3,48.9,31.3,48.9,31.3,48.9C31.3,48.8,31.3,48.8,31.3,48.9 c-0.1-0.1-0.1-0.1-0.1-0.1c0,0,0,0,0,0c0,0-2-1.1-2-1.1s0,0-0.1,0c0,0-0.1,0-0.1,0c0,0-0.1,0-0.1,0c0,0-0.1,0-0.1,0c0,0,0,0,0,0 c0,0,0,0,0,0c0,0,0,0,0,0s0,0,0,0c0,0-1.9,1.1-1.9,1.1s-0.1,0-0.1,0.1c0,0,0,0,0,0c0,0,0,0,0,0c0,0,0,0,0,0c0,0,0,0,0,0 c0,0,0,0,0,0.1c0,0,0,0,0,0c0,0,0,0,0,0c0,0,0,0,0,0c0,0,0,0,0,0c0,0,0,2.3,0,2.3s0,0,0,0c0,0,0,0,0,0c0,0,0,0,0,0c0,0,0,0,0,0 c0,0,0,0,0,0c0,0,0,0,0,0c0,0,0,0,0,0C26.7,51.5,31.3,48.9,31.3,48.9z"></path> <linearGradient id="SVGID_14_" gradientUnits="userSpaceOnUse" x1="28.3714" y1="48.6521" x2="28.142" y2="48.2787"> <stop offset="0" style="stop-color:#9E0000"></stop> <stop offset="0.5" style="stop-color:#FF7700"></stop> <stop offset="1" style="stop-color:#FFF9A1"></stop> </linearGradient> <circle class="st48" cx="28.3" cy="48.5" r="0.1"></circle> </g> </svg> 