<?xml version="1.0" encoding="UTF-8"?> <!-- Generator: Adobe Illustrator 22.0.1, SVG Export Plug-In . SVG Version: 6.00 Build 0) --> <svg xmlns="http://www.w3.org/2000/svg" xmlns:xlink="http://www.w3.org/1999/xlink" id="Layer_1" x="0px" y="0px" viewBox="0 0 205 205" style="enable-background:new 0 0 205 205;" xml:space="preserve"> <style type="text/css"> .st0{fill:url(#SVGID_1_);} .st1{fill:#FFFFFF;} </style> <g> <linearGradient id="SVGID_1_" gradientUnits="userSpaceOnUse" x1="13.9606" y1="13.1982" x2="192.0394" y2="191.277"> <stop offset="0" style="stop-color:#00AFE5"></stop> <stop offset="1" style="stop-color:#0094D4"></stop> </linearGradient> <path class="st0" d="M170.4,200.2H35.6C18.7,200.2,5,186.5,5,169.6V34.8C5,17.9,18.7,4.2,35.6,4.2h134.8 c16.9,0,30.6,13.7,30.6,30.6v134.8C201,186.5,187.3,200.2,170.4,200.2z"></path> <path class="st1" d="M147.5,56.8c-0.4,0-0.8,0.1-1.2,0.2L42.4,96.6c-2.9,1.1-2.9,5.3,0.1,6.3l24.1,8.1l14.5,29.1c0,0,0,0,0,0l0,0.1 l0,0c0.3,0.5,0.8,0.9,1.4,0.9c0.3,0,0.7-0.1,1-0.4l13.6-11.5L82,117.6l1.2,15.1l-10.9-22.6l58.1-34.9L82,117.6l37.6,28.6 c1.3,1,2.7,1.4,4.1,1.4c3,0,5.9-2,6.7-5.2L150.8,61C151.3,58.8,149.6,56.8,147.5,56.8z"></path> </g> </svg> 